<?xml version="1.0" standalone="no"?>
<!DOCTYPE svg PUBLIC "-//W3C//DTD SVG 20010904//EN"
 "http://www.w3.org/TR/2001/REC-SVG-20010904/DTD/svg10.dtd">
<svg version="1.0" xmlns="http://www.w3.org/2000/svg"
 width="1024.000000pt" height="1024.000000pt" viewBox="0 0 1024.000000 1024.000000"
 preserveAspectRatio="xMidYMid meet">

<g transform="translate(0.000000,1024.000000) scale(0.100000,-0.100000)"
fill="#000000" stroke="none">
<path d="M3825 9161 c-131 -59 -148 -231 -31 -314 26 -19 48 -22 161 -28 186
-8 254 -42 313 -154 26 -48 27 -57 30 -232 l4 -183 -59 0 c-70 0 -112 -23
-136 -73 -14 -28 -17 -66 -17 -191 l0 -156 -382 0 c-423 0 -458 -4 -577 -63
-76 -37 -185 -135 -232 -208 -65 -101 -82 -167 -87 -339 l-4 -155 2313 2 2314
3 0 142 c-1 157 -10 201 -69 313 -41 78 -144 182 -227 228 -127 71 -173 77
-598 77 l-376 0 0 163 c0 140 -3 167 -18 190 -29 44 -75 67 -135 67 l-54 0 4
173 c3 171 3 173 36 239 19 39 46 77 67 92 73 56 92 59 351 65 l241 6 37 29
c49 37 80 105 73 157 -8 62 -50 124 -100 148 -40 20 -60 21 -287 21 -279 0
-327 -8 -453 -73 -145 -74 -256 -207 -313 -372 -26 -75 -28 -94 -32 -282 l-4
-203 -52 0 c-64 0 -112 -27 -132 -75 -10 -25 -14 -77 -14 -190 l0 -155 -245 0
-245 0 0 155 c0 177 -9 213 -62 245 -22 13 -51 20 -88 20 l-55 0 -1 193 c-1
147 -5 207 -18 257 -48 181 -168 331 -326 409 -110 54 -194 71 -350 71 -100 0
-133 -4 -165 -19z"/>
<path d="M2853 6850 c-36 -14 -43 -43 -43 -163 0 -163 -3 -161 178 -165 l139
-3 7 -222 c3 -122 13 -429 21 -682 8 -253 24 -791 35 -1195 11 -404 22 -753
25 -775 15 -112 110 -231 228 -286 65 -30 83 -33 185 -37 l112 -5 0 -159 c0
-177 7 -207 59 -251 47 -39 100 -49 241 -45 144 4 179 18 218 86 20 37 22 53
22 206 l0 166 850 0 850 0 0 -165 c0 -190 10 -225 77 -266 35 -22 48 -24 183
-24 136 0 148 2 189 25 73 41 81 67 81 261 l0 166 108 5 c205 10 329 91 394
259 19 51 22 95 39 709 18 633 52 1719 66 2063 l6 167 123 0 c133 0 165 8 183
47 14 31 14 215 0 247 -7 14 -25 30 -42 36 -38 13 -4501 13 -4534 0z m2679
-305 c439 -77 811 -397 952 -820 74 -222 76 -510 4 -743 -21 -68 -80 -200
-118 -262 l-22 -36 242 -239 c273 -272 291 -297 291 -409 0 -109 -68 -223
-163 -272 -49 -26 -145 -30 -209 -9 -49 16 -77 40 -315 277 l-262 260 -39 -26
c-54 -36 -198 -92 -301 -119 -76 -19 -113 -22 -287 -21 -186 0 -207 2 -300 28
-467 128 -818 508 -900 977 -19 107 -19 312 0 420 51 298 230 586 476 769 142
105 343 194 511 224 102 19 334 19 440 1z"/>
<path d="M5100 6311 c-270 -58 -511 -227 -648 -454 -150 -250 -185 -572 -92
-847 102 -301 359 -542 675 -636 121 -36 340 -45 464 -20 111 23 235 69 315
117 37 22 72 37 78 33 6 -4 144 -138 306 -298 162 -160 306 -299 320 -308 65
-43 148 -28 196 35 37 49 48 92 35 141 -9 35 -57 88 -320 351 -170 171 -309
313 -309 317 0 3 16 30 36 59 128 188 188 463 150 691 -68 412 -378 733 -791
819 -118 24 -299 24 -415 0z m428 -211 c282 -80 503 -309 568 -587 20 -87 20
-257 0 -351 -39 -182 -167 -370 -326 -479 -415 -283 -977 -127 -1190 329 -52
111 -65 179 -65 333 1 132 3 146 33 235 100 290 327 485 630 540 78 15 268 4
350 -20z"/>
<path d="M5625 5711 c-16 -10 -131 -121 -255 -245 l-224 -225 -96 93 c-73 72
-104 96 -131 101 -72 13 -149 -48 -149 -118 0 -53 31 -96 171 -231 210 -205
202 -206 469 64 424 429 400 402 400 451 -1 53 -16 84 -56 110 -37 24 -90 24
-129 0z"/>
<path d="M3090 2438 c0 -465 2 -563 15 -613 36 -135 124 -242 252 -303 l78
-37 1664 -3 c1498 -2 1670 -1 1720 14 143 40 257 150 314 302 21 56 21 71 25
625 l3 568 -63 -6 c-191 -20 -309 -58 -497 -161 -64 -35 -152 -75 -196 -91
-74 -25 -92 -27 -235 -28 -149 0 -158 1 -248 32 -51 18 -145 62 -210 98 -224
125 -383 163 -632 152 -198 -9 -332 -49 -530 -158 -156 -86 -268 -121 -411
-127 -191 -8 -293 19 -484 128 -168 96 -300 137 -492 155 l-73 6 0 -553z
m2960 26 c37 -8 107 -35 155 -59 l86 -43 84 39 c87 41 144 49 165 24 14 -17
11 -37 -21 -122 l-23 -61 27 -66 c30 -73 33 -96 15 -114 -22 -22 -71 -13 -160
29 l-87 42 -70 -37 c-233 -122 -506 -92 -673 75 -32 32 -58 66 -58 76 0 49
105 146 205 188 108 45 238 56 355 29z m-1720 -72 c70 -25 172 -76 230 -115
59 -40 176 -153 201 -194 25 -40 20 -50 -57 -127 -161 -159 -317 -234 -511
-244 -57 -2 -103 -1 -103 3 0 4 14 23 30 42 17 18 30 37 30 42 0 4 -26 15 -57
25 -32 10 -91 33 -131 52 l-73 33 -84 -55 c-47 -30 -105 -62 -130 -71 -41 -14
-48 -14 -70 1 -34 22 -32 45 14 169 l39 105 -39 106 c-21 58 -39 115 -39 126
0 11 11 27 25 36 24 15 28 15 69 0 25 -9 82 -40 127 -67 l83 -50 72 33 c41 18
73 36 74 41 0 4 -27 28 -60 54 -33 25 -60 49 -60 53 0 16 121 29 240 25 92 -2
139 -8 180 -23z m1056 -525 c60 -54 57 -152 -5 -196 -113 -80 -263 33 -205
154 23 49 67 75 127 75 39 0 53 -5 83 -33z"/>
<path d="M5720 2310 c-52 -52 3 -142 76 -124 31 8 57 55 48 89 -13 53 -86 73
-124 35z"/>
<path d="M4405 2125 c-52 -51 -18 -135 54 -135 42 0 81 38 81 80 0 41 -39 80
-80 80 -19 0 -40 -9 -55 -25z"/>
</g>
</svg>
