<?xml version="1.0" standalone="no"?>
<!DOCTYPE svg PUBLIC "-//W3C//DTD SVG 20010904//EN"
 "http://www.w3.org/TR/2001/REC-SVG-20010904/DTD/svg10.dtd">
<svg version="1.0" xmlns="http://www.w3.org/2000/svg"
 width="1024.000000pt" height="1024.000000pt" viewBox="0 0 1024.000000 1024.000000"
 preserveAspectRatio="xMidYMid meet">

<g transform="translate(0.000000,1024.000000) scale(0.100000,-0.100000)"
fill="#000000" stroke="none">
<path d="M3697 9705 c-156 -51 -196 -250 -71 -353 53 -44 89 -52 225 -52 103
0 120 -3 167 -26 90 -45 145 -126 162 -241 5 -37 10 -132 10 -210 l0 -143 -75
0 c-96 0 -136 -16 -159 -65 -16 -33 -18 -61 -15 -214 l4 -176 -440 -6 c-490
-6 -496 -6 -630 -77 -100 -53 -219 -174 -268 -272 -55 -113 -68 -173 -74 -362
l-6 -168 2591 0 2590 0 7 27 c8 35 -3 270 -17 343 -39 208 -198 395 -398 469
-97 36 -173 41 -592 41 l-408 0 0 188 c-1 203 -4 219 -56 253 -22 14 -47 19
-106 19 l-78 0 0 128 c1 226 25 319 103 400 83 86 84 86 407 92 269 5 287 7
327 27 151 81 156 278 8 360 l-50 28 -262 3 c-303 4 -381 -6 -502 -63 -199
-95 -328 -238 -397 -440 -26 -76 -28 -92 -32 -307 l-4 -228 -74 0 c-90 0 -137
-18 -164 -62 -18 -30 -20 -50 -20 -215 l0 -183 -280 0 -280 0 0 175 c0 198 -8
232 -62 265 -25 15 -50 20 -104 20 l-72 0 -5 223 c-5 255 -12 293 -83 435 -83
165 -235 295 -414 353 -88 29 -331 37 -403 14z"/>
<path d="M2581 7096 c-13 -7 -30 -24 -37 -37 -18 -32 -19 -244 -1 -279 23 -46
69 -60 205 -60 l122 0 0 -67 c0 -38 9 -340 20 -673 11 -333 31 -949 45 -1370
30 -950 32 -989 56 -1066 23 -74 86 -172 137 -212 95 -75 188 -102 347 -102
l105 0 0 -172 c0 -95 5 -191 11 -213 15 -55 83 -119 142 -133 59 -15 240 -15
309 -1 65 14 130 73 147 134 6 22 11 117 11 213 l0 172 930 0 930 0 0 -179 c0
-234 14 -276 105 -324 32 -17 64 -22 160 -25 156 -6 224 8 275 54 60 54 70 98
70 301 l0 173 108 1 c133 0 217 21 295 73 101 68 176 180 197 296 8 47 26 532
70 1875 6 171 17 513 25 760 8 248 15 458 15 468 0 15 12 17 120 17 203 0 224
20 218 212 l-3 120 -33 29 -32 29 -2523 0 c-2074 -1 -2526 -3 -2546 -14z
m3019 -340 c250 -51 469 -168 659 -350 110 -107 172 -187 242 -314 112 -201
161 -390 161 -617 0 -221 -37 -382 -140 -598 l-56 -118 282 -282 c311 -312
332 -340 332 -448 0 -131 -63 -235 -177 -291 -58 -28 -78 -33 -139 -33 -128 1
-157 22 -473 339 l-274 274 -41 -26 c-112 -70 -262 -123 -434 -153 -736 -126
-1433 415 -1523 1182 -46 395 93 779 391 1079 183 185 405 305 668 360 134 29
373 27 522 -4z"/>
<path d="M5154 6515 c-232 -42 -428 -147 -599 -320 -144 -146 -237 -319 -283
-523 -26 -117 -23 -358 6 -475 78 -316 283 -573 567 -712 163 -81 287 -109
480 -109 112 -1 170 4 230 18 133 31 275 90 370 156 l42 29 329 -331 c181
-181 347 -343 368 -359 96 -72 238 -10 261 112 14 73 -9 101 -378 467 l-346
343 45 64 c59 85 108 193 142 312 24 90 27 113 27 273 0 160 -3 183 -27 273
-114 408 -443 708 -858 783 -93 17 -282 16 -376 -1z m383 -236 c249 -55 477
-235 583 -461 52 -111 71 -192 77 -323 6 -154 -18 -280 -77 -403 -114 -239
-292 -390 -547 -469 -79 -24 -103 -27 -238 -27 -135 0 -159 3 -240 28 -154 47
-256 107 -366 216 -163 161 -246 339 -256 550 -13 260 66 468 247 651 112 113
209 175 348 219 156 50 299 56 469 19z"/>
<path d="M5715 5875 c-30 -11 -101 -75 -299 -275 -143 -143 -264 -259 -268
-258 -4 2 -54 47 -112 100 -112 105 -142 123 -190 112 -86 -18 -131 -108 -92
-182 8 -15 86 -98 174 -185 122 -121 167 -160 193 -166 77 -17 81 -13 421 326
176 175 326 330 334 345 39 74 -10 172 -96 191 -14 3 -43 -1 -65 -8z"/>
<path d="M2833 2227 c3 -539 5 -629 20 -676 26 -89 66 -159 124 -222 61 -65
183 -145 208 -135 9 3 14 2 11 -3 -3 -5 13 -15 37 -22 57 -18 3623 -26 3730
-8 82 13 202 71 268 129 63 53 112 131 146 226 l28 79 3 629 3 628 -78 -7
c-181 -16 -263 -44 -519 -174 -105 -54 -216 -102 -269 -118 -81 -24 -106 -27
-250 -26 -132 0 -174 3 -237 21 -97 26 -198 70 -308 133 -199 113 -352 158
-567 166 -265 11 -436 -31 -684 -168 -227 -125 -381 -166 -584 -156 -169 9
-241 32 -490 156 -242 121 -348 155 -513 165 l-83 5 4 -622z m111 595 c3 -5
-8 -6 -25 -4 -16 2 -29 6 -29 8 0 8 49 4 54 -4z m85 -8 c10 -9 -35 -3 -49 6
-11 8 -7 9 15 4 17 -4 32 -8 34 -10z m2248 10 c-3 -3 -12 -4 -19 -1 -8 3 -5 6
6 6 11 1 17 -2 13 -5z m-537 -54 c-8 -5 -19 -10 -25 -10 -5 0 -3 5 5 10 8 5
20 10 25 10 6 0 3 -5 -5 -10z m-1460 -30 c8 -5 11 -10 5 -10 -5 0 -17 5 -25
10 -8 5 -10 10 -5 10 6 0 17 -5 25 -10z m1385 0 c-3 -5 -12 -10 -18 -10 -7 0
-6 4 3 10 19 12 23 12 15 0z m-1265 -65 c0 -3 -22 6 -50 20 -27 14 -50 28 -50
30 0 3 23 -6 50 -20 28 -14 50 -28 50 -30z m-553 13 c-3 -7 -5 -2 -5 12 0 14
2 19 5 13 2 -7 2 -19 0 -25z m2988 -76 c-4 -5 -115 57 -115 64 0 3 27 -10 59
-28 33 -18 58 -34 56 -36z m1552 46 c-3 -8 -6 -5 -6 6 -1 11 2 17 5 13 3 -3 4
-12 1 -19z m-3952 -6 c-3 -3 -11 0 -18 7 -9 10 -8 11 6 5 10 -3 15 -9 12 -12z
m-585 -366 c1 -197 -1 -360 -4 -364 -3 -3 -6 160 -6 363 0 203 2 366 5 364 2
-3 5 -166 5 -363z m4537 287 c-2 -16 -4 -5 -4 22 0 28 2 40 4 28 2 -13 2 -35
0 -50z m-2987 32 c0 -6 -76 -45 -87 -45 -4 1 12 12 37 25 50 27 50 27 50 20z
m1521 -33 c-7 -2 -18 1 -23 6 -8 8 -4 9 13 5 13 -4 18 -8 10 -11z m729 -6 c0
-2 -7 -7 -16 -10 -8 -3 -12 -2 -9 4 6 10 25 14 25 6z m-2430 -35 c0 -5 -14
-11 -30 -13 -33 -5 -29 7 5 15 11 3 21 5 23 6 1 0 2 -3 2 -8z m-473 -7 c-3 -3
-12 -4 -19 -1 -8 3 -5 6 6 6 11 1 17 -2 13 -5z m3640 -51 c-3 -10 -5 -2 -5 17
0 19 2 27 5 18 2 -10 2 -26 0 -35z m-3519 30 c-10 -2 -28 -2 -40 0 -13 2 -5 4
17 4 22 1 32 -1 23 -4z m219 1 c-3 -3 -12 -4 -19 -1 -8 3 -5 6 6 6 11 1 17 -2
13 -5z m2126 -1 c-13 -2 -33 -2 -45 0 -13 2 -3 4 22 4 25 0 35 -2 23 -4z m205
0 c-10 -2 -28 -2 -40 0 -13 2 -5 4 17 4 22 1 32 -1 23 -4z m969 -185 c-2 -18
-4 -6 -4 27 0 33 2 48 4 33 2 -15 2 -42 0 -60z m-1314 -25 c-23 -2 -64 -2 -90
0 -26 2 -7 3 42 3 50 0 71 -1 48 -3z m-170 -10 c-7 -2 -19 -2 -25 0 -7 3 -2 5
12 5 14 0 19 -2 13 -5z m250 0 c-7 -2 -19 -2 -25 0 -7 3 -2 5 12 5 14 0 19 -2
13 -5z m-296 -9 c-3 -3 -12 -4 -19 -1 -8 3 -5 6 6 6 11 1 17 -2 13 -5z m253
-4 c95 -15 198 -55 258 -101 l54 -40 33 25 c52 40 171 96 203 96 63 0 67 -52
10 -169 l-33 -69 37 -68 c38 -70 48 -120 26 -142 -30 -30 -132 3 -228 73 l-47
34 -28 -29 c-35 -37 -154 -95 -223 -109 -75 -16 -236 -13 -311 4 -100 24 -192
78 -266 156 -36 38 -65 78 -65 89 0 11 27 48 60 83 126 135 322 197 520 167z
m87 4 c-3 -3 -12 -4 -19 -1 -8 3 -5 6 6 6 11 1 17 -2 13 -5z m463 -4 c-34 -11
-60 -11 -35 0 11 5 29 8 40 8 16 0 15 -2 -5 -8z m727 -42 c-2 -13 -4 -5 -4 17
-1 22 1 32 4 23 2 -10 2 -28 0 -40z m-1582 32 c-27 -12 -43 -12 -25 0 8 5 22
9 30 9 10 0 8 -3 -5 -9z m465 -10 c8 -5 11 -10 5 -10 -5 0 -17 5 -25 10 -8 5
-10 10 -5 10 6 0 17 -5 25 -10z m-515 -10 c-3 -5 -12 -10 -18 -10 -7 0 -6 4 3
10 19 12 23 12 15 0z m-1792 -7 c-7 -2 -21 -2 -30 0 -10 3 -4 5 12 5 17 0 24
-2 18 -5z m-80 -10 c-7 -2 -21 -2 -30 0 -10 3 -4 5 12 5 17 0 24 -2 18 -5z
m240 0 c-7 -2 -21 -2 -30 0 -10 3 -4 5 12 5 17 0 24 -2 18 -5z m92 -13 c14 -7
8 -8 -20 -3 -22 3 -42 7 -44 9 -9 8 45 2 64 -6z m2155 -16 c0 -2 -9 0 -20 6
-11 6 -20 13 -20 16 0 2 9 0 20 -6 11 -6 20 -13 20 -16z m-2130 -14 c92 -26
211 -85 299 -147 95 -67 221 -196 221 -227 0 -28 -55 -101 -126 -166 -153
-142 -375 -236 -584 -247 l-104 -6 31 39 c17 21 40 48 52 58 29 26 27 32 -15
39 -56 9 -171 56 -223 91 l-48 32 -37 -32 c-46 -40 -156 -98 -214 -114 -37 -9
-48 -9 -68 5 -38 25 -32 73 23 187 l46 98 -41 87 c-48 103 -63 159 -49 190 11
25 46 36 85 27 44 -11 177 -83 219 -119 l38 -33 35 33 c19 18 56 45 82 58 45
24 58 47 14 26 -20 -9 -20 -9 -3 5 18 14 17 17 -22 66 -23 29 -41 56 -41 60 0
15 50 18 205 15 117 -2 167 -8 225 -25z m45 10 c13 -5 14 -9 5 -9 -8 0 -24 4
-35 9 -13 5 -14 9 -5 9 8 0 24 -4 35 -9z m2185 -4 c0 -2 -8 -10 -17 -17 -16
-13 -17 -12 -4 4 13 16 21 21 21 13z m257 -18 c-3 -8 -6 -5 -6 6 -1 11 2 17 5
13 3 -3 4 -12 1 -19z m660 -30 c-2 -13 -4 -5 -4 17 -1 22 1 32 4 23 2 -10 2
-28 0 -40z m-3037 27 c14 -8 21 -14 15 -14 -5 0 -21 6 -35 14 -14 8 -20 14
-15 14 6 0 21 -6 35 -14z m-511 -49 c-3 -3 -11 5 -18 17 -13 21 -12 21 5 5 10
-10 16 -20 13 -22z m1761 21 c0 -2 -15 -16 -32 -33 l-33 -29 29 33 c28 30 36
37 36 29z m-2081 -26 c8 -5 -5 -7 -35 -4 -27 3 -51 7 -53 9 -9 8 75 3 88 -5z
m3171 -40 c-28 -56 -35 -52 -8 4 12 24 23 43 26 41 2 -2 -6 -22 -18 -45z m697
7 c-3 -7 -5 -2 -5 12 0 14 2 19 5 13 2 -7 2 -19 0 -25z m-2802 -53 c23 -20 18
-19 -17 6 -27 18 -48 34 -48 36 0 7 35 -16 65 -42z m-1208 -2 c-3 -10 -5 -4
-5 12 0 17 2 24 5 18 2 -7 2 -21 0 -30z m4023 33 c0 -3 -4 -8 -10 -11 -5 -3
-10 -1 -10 4 0 6 5 11 10 11 6 0 10 -2 10 -4z m-3680 -66 l35 -32 -45 33 c-55
40 -72 55 -45 41 11 -6 36 -25 55 -42z m1794 24 c3 -8 2 -12 -4 -9 -6 3 -10
10 -10 16 0 14 7 11 14 -7z m1877 -36 c-3 -62 -11 -60 -11 2 0 29 3 50 7 46 4
-3 6 -25 4 -48z m-727 26 c3 -8 2 -12 -4 -9 -6 3 -10 10 -10 16 0 14 7 11 14
-7z m-3265 -49 c0 -5 -4 -3 -9 5 -5 8 -9 22 -9 30 0 16 17 -16 18 -35z m1277
-7 l29 -33 -32 29 c-18 17 -33 31 -33 33 0 8 8 1 36 -29z m889 -8 l30 -35 -32
29 c-18 17 -33 34 -33 40 0 5 1 7 3 5 1 -2 16 -20 32 -39z m1135 0 c6 -11 8
-20 6 -20 -3 0 -10 9 -16 20 -6 11 -8 20 -6 20 3 0 10 -9 16 -20z m-3261 -75
c0 -5 -8 6 -19 25 -11 19 -19 40 -19 45 0 6 8 -6 19 -25 11 -19 19 -39 19 -45z
m3952 -92 c-1 -75 -4 -139 -6 -142 -3 -2 -5 62 -5 144 0 82 3 145 6 142 4 -4
6 -68 5 -144z m-961 113 c0 -2 -8 -10 -17 -17 -16 -13 -17 -12 -4 4 13 16 21
21 21 13z m310 -45 c0 -32 -6 -24 -14 19 -4 25 -3 31 4 20 5 -8 10 -26 10 -39z
m-1093 19 c14 -11 22 -20 18 -20 -4 0 -18 9 -32 20 -14 11 -22 20 -18 20 4 0
18 -9 32 -20z m-886 -7 c13 -16 12 -17 -3 -4 -10 7 -18 15 -18 17 0 8 8 3 21
-13z m1710 0 c13 -16 12 -17 -3 -4 -10 7 -18 15 -18 17 0 8 8 3 21 -13z
m-3013 -28 c-3 -3 -9 2 -12 12 -6 14 -5 15 5 6 7 -7 10 -15 7 -18z m3092 -21
c0 -2 -9 0 -20 6 -11 6 -20 13 -20 16 0 2 9 0 20 -6 11 -6 20 -13 20 -16z
m-210 11 c0 -6 -56 -35 -67 -35 -4 1 8 9 27 20 39 22 40 22 40 15z m250 -25
c8 -5 11 -10 5 -10 -5 0 -17 5 -25 10 -8 5 -10 10 -5 10 6 0 17 -5 25 -10z
m-789 -14 l34 -15 -32 2 c-17 1 -29 5 -27 9 2 3 -2 9 -8 11 -7 3 -10 6 -7 6 4
1 22 -6 40 -13z m434 -11 c-16 -8 -39 -14 -50 -14 -11 0 -2 6 20 14 52 17 68
17 30 0z m432 -1 c-3 -3 -12 -4 -19 -1 -8 3 -5 6 6 6 11 1 17 -2 13 -5z m-800
-10 c-3 -3 -12 -4 -19 -1 -8 3 -5 6 6 6 11 1 17 -2 13 -5z m-1107 -8 c0 -2 -8
-10 -17 -17 -16 -13 -17 -12 -4 4 13 16 21 21 21 13z m1168 -3 c-10 -2 -26 -2
-35 0 -10 3 -2 5 17 5 19 0 27 -2 18 -5z m225 0 c-7 -2 -19 -2 -25 0 -7 3 -2
5 12 5 14 0 19 -2 13 -5z m-85 -10 c-21 -2 -55 -2 -75 0 -21 2 -4 4 37 4 41 0
58 -2 38 -4z m-3211 -70 c-3 -10 -5 -2 -5 17 0 19 2 27 5 18 2 -10 2 -26 0
-35z m564 14 c-10 -9 -11 -8 -5 6 3 10 9 15 12 12 3 -3 0 -11 -7 -18z m1279 0
c0 -2 -15 -16 -32 -33 l-33 -29 29 33 c28 30 36 37 36 29z m-1299 -44 c-12
-20 -14 -14 -5 12 4 9 9 14 11 11 3 -2 0 -13 -6 -23z m2025 -19 c121 -58 104
-238 -26 -271 -71 -19 -146 11 -176 70 -66 128 70 263 202 201z m55 -11 c13
-16 12 -17 -3 -4 -10 7 -18 15 -18 17 0 8 8 3 21 -13z m-2094 -15 c-3 -8 -6
-5 -6 6 -1 11 2 17 5 13 3 -3 4 -12 1 -19z m3990 0 c-3 -8 -6 -5 -6 6 -1 11 2
17 5 13 3 -3 4 -12 1 -19z m-3676 -7 c-31 -23 -90 -57 -76 -44 13 14 88 63 95
63 3 0 -6 -9 -19 -19z m234 -60 c-5 -4 -135 56 -135 63 0 2 31 -10 69 -27 38
-18 68 -33 66 -36z m660 59 c-3 -5 -20 -19 -38 -30 -32 -22 -32 -22 3 9 37 32
45 37 35 21z m-600 -70 c13 -6 15 -9 5 -9 -8 0 -22 4 -30 9 -18 12 -2 12 25 0z
m-435 -10 c-8 -5 -19 -10 -25 -10 -5 0 -3 5 5 10 8 5 20 10 25 10 6 0 3 -5 -5
-10z m1627 -12 c-3 -8 -6 -5 -6 6 -1 11 2 17 5 13 3 -3 4 -12 1 -19z m-1704
-15 c-7 -2 -21 -2 -30 0 -10 3 -4 5 12 5 17 0 24 -2 18 -5z m517 4 c0 -2 -10
-12 -22 -23 l-23 -19 19 23 c18 21 26 27 26 19z m425 -7 c-3 -5 -12 -10 -18
-10 -7 0 -6 4 3 10 19 12 23 12 15 0z m-65 -30 c-8 -5 -19 -10 -25 -10 -5 0
-3 5 5 10 8 5 20 10 25 10 6 0 3 -5 -5 -10z m-65 -25 c-16 -8 -37 -14 -45 -14
-8 0 1 7 20 14 46 18 64 17 25 0z m919 -11 c3 -8 2 -12 -4 -9 -6 3 -10 10 -10
16 0 14 7 11 14 -7z m297 -2 c-5 -10 -18 -25 -27 -33 -11 -9 -9 -2 6 19 26 35
36 42 21 14z m-1284 -8 c-3 -3 -12 -4 -19 -1 -8 3 -5 6 6 6 11 1 17 -2 13 -5z
m-44 -11 c-7 -2 -19 -2 -25 0 -7 3 -2 5 12 5 14 0 19 -2 13 -5z m-55 -10 c-10
-2 -26 -2 -35 0 -10 3 -2 5 17 5 19 0 27 -2 18 -5z m1147 -31 c11 -6 15 -12 8
-12 -7 0 -22 10 -35 23 -13 12 -17 17 -8 11 8 -6 24 -16 35 -22z m-1242 21
c-13 -2 -35 -2 -50 0 -16 2 -5 4 22 4 28 0 40 -2 28 -4z m-1027 -35 l29 -33
-32 29 c-31 28 -38 36 -30 36 2 0 16 -15 33 -32z m4264 19 c0 -2 -15 -16 -32
-33 l-33 -29 29 33 c28 30 36 37 36 29z m-1897 -34 c-7 -2 -21 -2 -30 0 -10 3
-4 5 12 5 17 0 24 -2 18 -5z m1767 -68 c0 -2 -18 -14 -40 -25 -22 -11 -40 -18
-40 -15 0 2 17 13 38 24 42 23 42 23 42 16z m-3855 -60 c11 -1 41 -3 68 -4 26
0 47 -5 47 -10 0 -14 -129 1 -171 19 -22 10 -22 10 6 4 17 -3 39 -7 50 -9z
m1078 -9 c158 1 287 -3 287 -7 0 -5 -189 -9 -421 -9 -231 0 -418 3 -416 8 3 4
39 7 81 7 42 -1 76 2 76 5 0 3 24 4 53 1 28 -4 181 -5 340 -5z m-567 -9 c4 -4
-74 -6 -174 -5 -100 1 -182 6 -182 9 0 10 347 6 356 -4z m1341 -1 c9 -8 -406
-6 -447 2 -19 5 72 7 203 6 131 -1 241 -4 244 -8z m583 2 c0 -5 -119 -8 -265
-8 -146 1 -263 4 -261 9 7 10 526 9 526 -1z m1044 0 c-6 -10 -1034 -9 -1034 1
0 4 234 8 519 7 286 -1 517 -4 515 -8z"/>
<path d="M5823 2100 c-26 -11 -43 -40 -43 -74 0 -30 42 -66 77 -66 31 0 73 42
73 73 0 51 -59 87 -107 67z m50 -17 c-7 -2 -21 -2 -30 0 -10 3 -4 5 12 5 17 0
24 -2 18 -5z m-65 -28 c-6 -14 -13 -23 -15 -21 -5 5 15 46 22 46 3 0 -1 -11
-7 -25z m100 -6 c-3 -8 -7 -3 -11 10 -4 17 -3 21 5 13 5 -5 8 -16 6 -23z m-8
-54 c-7 -8 -18 -15 -24 -15 -6 0 -3 5 7 11 9 5 17 18 18 27 0 11 2 12 6 4 3
-7 -1 -19 -7 -27z"/>
<path d="M4362 1884 c-35 -15 -52 -41 -52 -82 0 -36 48 -82 86 -82 68 0 117
63 94 120 -15 35 -21 40 -65 50 -20 5 -44 2 -63 -6z m61 -11 c-7 -2 -21 -2
-30 0 -10 3 -4 5 12 5 17 0 24 -2 18 -5z m-72 -17 c-7 -8 -16 -27 -21 -43 -6
-21 -8 -23 -9 -8 -1 20 24 65 36 65 3 0 0 -6 -6 -14z m129 -47 c0 -14 -7 -34
-16 -45 -14 -18 -15 -18 -3 5 6 13 9 40 5 60 -4 25 -2 31 4 21 5 -8 10 -27 10
-41z m-129 -46 c13 -16 12 -17 -3 -4 -10 7 -18 15 -18 17 0 8 8 3 21 -13z"/>
</g>
</svg>
